<svg xmlns="http://www.w3.org/2000/svg" width="1024" height="1024" viewBox="0 0 1024 1024" role="img" aria-labelledby="title desc">
  <title id="title">Pomogochi icon</title>
  <desc id="desc">A playful Pomodoro timer pet with a tiny always-on-top window.</desc>
  <defs>
    <linearGradient id="background" x1="118" y1="78" x2="906" y2="956" gradientUnits="userSpaceOnUse">
      <stop stop-color="#dbeafe" />
      <stop offset="0.45" stop-color="#f8fafc" />
      <stop offset="1" stop-color="#ffe4e6" />
    </linearGradient>
    <linearGradient id="pet" x1="292" y1="204" x2="734" y2="842" gradientUnits="userSpaceOnUse">
      <stop stop-color="#fb7185" />
      <stop offset="0.44" stop-color="#ef4444" />
      <stop offset="1" stop-color="#be123c" />
    </linearGradient>
    <linearGradient id="leaf" x1="328" y1="128" x2="706" y2="320" gradientUnits="userSpaceOnUse">
      <stop stop-color="#bbf7d0" />
      <stop offset="1" stop-color="#16a34a" />
    </linearGradient>
    <filter id="soft-shadow" x="78" y="68" width="884" height="894" color-interpolation-filters="sRGB" filterUnits="userSpaceOnUse">
      <feDropShadow dx="0" dy="34" flood-color="#0f172a" flood-opacity="0.24" stdDeviation="34" />
    </filter>
    <filter id="card-shadow" x="552" y="584" width="348" height="270" color-interpolation-filters="sRGB" filterUnits="userSpaceOnUse">
      <feDropShadow dx="0" dy="22" flood-color="#0f172a" flood-opacity="0.32" stdDeviation="22" />
    </filter>
  </defs>

  <rect width="1024" height="1024" rx="226" fill="url(#background)" />
  <circle cx="220" cy="214" r="138" fill="#ffffff" opacity="0.34" />
  <circle cx="814" cy="278" r="188" fill="#ffffff" opacity="0.34" />
  <circle cx="758" cy="790" r="230" fill="#ffffff" opacity="0.26" />

  <g filter="url(#soft-shadow)">
    <path fill="url(#leaf)" d="M506 274c-88-92-112-168-72-226 78 30 126 90 142 180 40-64 100-102 180-116 16 92-42 168-174 228z" />
    <path fill="#22c55e" d="M440 314c-106-20-176-68-210-144 88-34 170-8 246 78 2-88 44-154 126-198 46 84 12 166-102 246z" opacity="0.88" />
    <path fill="url(#pet)" d="M244 506c0-164 118-286 268-286s268 122 268 286c0 198-132 344-268 344S244 704 244 506Z" />
    <circle cx="512" cy="514" r="216" fill="#ffffff" opacity="0.13" />
    <ellipse cx="512" cy="548" rx="188" ry="132" fill="#fff7ed" opacity="0.92" />
    <circle cx="436" cy="520" r="34" fill="#111827" />
    <circle cx="588" cy="520" r="34" fill="#111827" />
    <circle cx="448" cy="508" r="10" fill="#ffffff" opacity="0.72" />
    <circle cx="600" cy="508" r="10" fill="#ffffff" opacity="0.72" />
    <path d="M462 614c34 42 68 42 102 0" fill="none" stroke="#111827" stroke-linecap="round" stroke-width="30" />
    <path d="M340 418c48-64 112-98 192-98" fill="none" stroke="#fecdd3" stroke-linecap="round" stroke-width="34" opacity="0.56" />
    <ellipse cx="512" cy="548" rx="278" ry="190" fill="none" stroke="#fff7ed" stroke-opacity="0.5" stroke-width="24" transform="rotate(-12 512 548)" />
  </g>

  <g filter="url(#card-shadow)">
    <rect x="606" y="636" width="252" height="164" rx="54" fill="#0f172a" />
    <circle cx="666" cy="706" r="28" fill="#ef4444" />
    <rect x="716" y="674" width="82" height="16" rx="8" fill="#f8fafc" opacity="0.72" />
    <rect x="716" y="714" width="104" height="28" rx="14" fill="#f8fafc" opacity="0.9" />
    <path d="M772 746c22-20 44-38 44-64" fill="none" stroke="#fb7185" stroke-linecap="round" stroke-width="18" />
  </g>
</svg>
