<svg xmlns="http://www.w3.org/2000/svg" width="1024" height="1024" viewBox="0 0 1024 1024" role="img" aria-labelledby="title desc">
  <title id="title">Pomodoro App icon</title>
  <desc id="desc">A tomato timer with a small floating window card.</desc>
  <defs>
    <linearGradient id="background" x1="128" y1="80" x2="896" y2="944" gradientUnits="userSpaceOnUse">
      <stop stop-color="#dbeafe" />
      <stop offset="0.52" stop-color="#f8fafc" />
      <stop offset="1" stop-color="#fbcfe8" />
    </linearGradient>
    <linearGradient id="tomato" x1="284" y1="226" x2="750" y2="844" gradientUnits="userSpaceOnUse">
      <stop stop-color="#fb7185" />
      <stop offset="0.46" stop-color="#ef4444" />
      <stop offset="1" stop-color="#be123c" />
    </linearGradient>
    <linearGradient id="leaf" x1="392" y1="162" x2="620" y2="332" gradientUnits="userSpaceOnUse">
      <stop stop-color="#86efac" />
      <stop offset="1" stop-color="#15803d" />
    </linearGradient>
    <filter id="soft-shadow" x="92" y="82" width="840" height="870" color-interpolation-filters="sRGB" filterUnits="userSpaceOnUse">
      <feDropShadow dx="0" dy="34" flood-color="#0f172a" flood-opacity="0.22" stdDeviation="34" />
    </filter>
    <filter id="card-shadow" x="542" y="556" width="354" height="284" color-interpolation-filters="sRGB" filterUnits="userSpaceOnUse">
      <feDropShadow dx="0" dy="24" flood-color="#0f172a" flood-opacity="0.3" stdDeviation="22" />
    </filter>
  </defs>

  <rect width="1024" height="1024" rx="226" fill="url(#background)" />
  <circle cx="220" cy="210" r="132" fill="#ffffff" opacity="0.3" />
  <circle cx="826" cy="260" r="180" fill="#ffffff" opacity="0.32" />
  <circle cx="758" cy="780" r="220" fill="#ffffff" opacity="0.26" />

  <g filter="url(#soft-shadow)">
    <path fill="url(#leaf)" d="M512 278c-72-86-86-158-38-214 64 40 92 100 86 180 42-56 96-88 164-96 10 78-38 144-144 196z" />
    <path fill="#22c55e" d="M442 316c-96-18-156-60-180-128 82-28 154-4 216 74 8-78 50-134 126-168 36 78 0 150-108 216z" opacity="0.86" />
    <path fill="url(#tomato)" d="M246 490c0-150 118-262 266-262s266 112 266 262c0 188-128 336-266 336S246 678 246 490Z" />
    <circle cx="512" cy="528" r="196" fill="#ffffff" opacity="0.15" />
    <circle cx="512" cy="528" r="184" fill="none" stroke="#fff7ed" stroke-opacity="0.72" stroke-width="34" />
    <path d="M512 398v140l112 68" fill="none" stroke="#fff7ed" stroke-linecap="round" stroke-linejoin="round" stroke-width="42" />
    <circle cx="512" cy="528" r="31" fill="#fff7ed" />
    <path d="M344 398c48-62 112-94 190-92" fill="none" stroke="#fecdd3" stroke-linecap="round" stroke-width="34" opacity="0.55" />
  </g>

  <g filter="url(#card-shadow)">
    <rect x="594" y="620" width="256" height="172" rx="54" fill="#0f172a" />
    <rect x="626" y="656" width="92" height="18" rx="9" fill="#f8fafc" opacity="0.74" />
    <rect x="734" y="656" width="54" height="18" rx="9" fill="#f8fafc" opacity="0.42" />
    <rect x="626" y="706" width="168" height="30" rx="15" fill="#f8fafc" opacity="0.9" />
    <path d="M790 732V680m0 0-24 24m24-24 24 24" fill="none" stroke="#fb7185" stroke-linecap="round" stroke-linejoin="round" stroke-width="20" />
  </g>
</svg>
